<svg xmlns="http://www.w3.org/2000/svg" viewBox="0 0 1180 299.98"><defs><style>.a{fill:#ff9100;}.b{fill:#25d9f8;}.c{fill:#00c0f1;}.d{fill:#7fe881;}.e{fill:#5bc980;}.f{fill:#ff637b;}.g{fill:#e63950;}</style></defs><title>logo</title><path class="a" d="M252.16,127.49,201.4,98.14l-69.53,52,69.53,52,50.93-29.45a26.42,26.42,0,0,0-.17-45.23Z" transform="translate(0 -0.04)"/><path class="b" d="M149.45,150.16c-.08.09-61.49,79.13-61.54,79.19l-80,63.06a26.8,26.8,0,0,1-7.91-19V26.47a26.8,26.8,0,0,1,7.91-19L87.91,71Z" transform="translate(0 -0.04)"/><polygon class="c" points="149.45 150.13 131.87 172.82 131.87 127.42 149.45 150.13"/><path class="d" d="M201.49,98l-52,52.1L7.92,7.46a40.38,40.38,0,0,1,5.45-4A26,26,0,0,1,40.1,4l91.77,54Z" transform="translate(0 -0.04)"/><polygon class="e" points="201.49 98.03 149.45 150.13 131.87 132.53 131.87 57.91 201.49 98.03"/><path class="f" d="M201.49,202.25l-69.62,40.12-92,53.74A26.8,26.8,0,0,1,26.38,300a27.31,27.31,0,0,1-13-3.52,39.89,39.89,0,0,1-5.45-4.05L149.45,150.16Z" transform="translate(0 -0.04)"/><polygon class="g" points="201.49 202.22 131.87 242.34 131.87 167.72 149.45 150.13 201.49 202.22"/><path d="M500.86,56.41a7,7,0,0,1,6.93,6.93v.42a7,7,0,0,1-6.93,6.93H457.6V90h31.08a17.74,17.74,0,0,1,13,5.25,17.06,17.06,0,0,1,5.67,13.23v25.2a17.36,17.36,0,0,1-5.67,13.23,17.93,17.93,0,0,1-13,5.46H373a6.89,6.89,0,0,1,3,7.56l-2.53,9.45H510.1a7.13,7.13,0,0,1,6.93,6.93v.42a7,7,0,0,1-6.93,6.93H488.26a10.4,10.4,0,0,1-.84,2.73,66.73,66.73,0,0,1-16.17,19.32,91.55,91.55,0,0,1-18.48,12.39l3.15.63c18.06,4,36.12,8,54,11.76a7.19,7.19,0,0,1,5.46,8.4v.42a7.14,7.14,0,0,1-8.4,5l-76.44-16.8A299.45,299.45,0,0,1,390,237.85q-24.25,4.72-53.56,7.56a6.89,6.89,0,0,1-7.56-6.3v-.42a6.88,6.88,0,0,1,6.09-7.56c18.27-1.68,34.87-4,50-6.72,5.67-1,11.13-2.1,16.38-3.36l-9.45-2.1c-10.71-2.31-22.47-6.3-29.2-12.81a24.73,24.73,0,0,1-5.67-8.4,29.2,29.2,0,0,1-1.47-14.07H335.58a7,7,0,0,1-6.93-6.93v-.42a7.13,7.13,0,0,1,6.93-6.93h23.1L362,156.58a7.37,7.37,0,0,1,2.95-4.2h-8.2a18.69,18.69,0,0,1-18.48-18.69v-25.2a18.58,18.58,0,0,1,11.34-17.22A20.45,20.45,0,0,1,356.79,90h30.88V70.69H344.4a7.13,7.13,0,0,1-6.93-6.93v-.42a7.13,7.13,0,0,1,6.93-6.93ZM356.79,104.08a4.31,4.31,0,0,0-4.41,4.41v25.2a4.31,4.31,0,0,0,4.41,4.41h30.88v-34Zm115.72,79.59H369.82c-.63,3.36-.85,6.3,1.05,9.24,2.09,4,7.14,6.93,11.76,8.61a86.88,86.88,0,0,0,12.18,3.57l34.86,7.77c12.6-4.62,22.47-10.08,30.66-16.38A58,58,0,0,0,472.51,183.67ZM402.16,90h41.37V70.69H402.16Zm0,48.09h41.37v-34H402.16Zm86.52,0a4.48,4.48,0,0,0,4.62-4.41v-25.2a4.48,4.48,0,0,0-4.62-4.41H457.6v34Z" transform="translate(0 -0.04)"/><path d="M606.7,245.83c-9.24,0-16.8-5.46-20.58-13.86a24,24,0,0,1-1.69-8.61V174.85c-6.3,7.35-12.8,14.7-19.53,21.63a7.75,7.75,0,0,1-5,2.1,6.84,6.84,0,0,1-4.83-2.1l-.42-.21a6.91,6.91,0,0,1,0-9.66,453.22,453.22,0,0,0,43.9-53.13H559.23a7,7,0,0,1-6.93-6.93v-.42a7.13,7.13,0,0,1,6.93-6.93h48.94L617,104.92H571A7,7,0,0,1,564.06,98v-.21A6.86,6.86,0,0,1,571,90.85h53.56C627.49,85,630.22,79.09,633,73H571a7.13,7.13,0,0,1-6.93-6.93v-.42A7,7,0,0,1,571,58.72H718.21a7,7,0,0,1,6.93,6.93v.42A7.13,7.13,0,0,1,718.21,73H647.86c0,.63-.21,1.26-.21,1.89-2.31,5.46-4.83,10.71-7.35,16h77.91a6.86,6.86,0,0,1,6.93,6.93V98a7,7,0,0,1-6.93,6.93H633.16c-2.73,4.83-5.46,9.66-8.4,14.28H730.18a7,7,0,0,1,6.93,6.93v.42a6.86,6.86,0,0,1-6.93,6.93H615.73c-1.26,2.1-2.73,4.2-4.2,6.3L607.75,145H701a21.73,21.73,0,0,1,15.75,6.72,19.93,19.93,0,0,1,4.62,7.14,19.21,19.21,0,0,1,2.1,8.61v55.86a18,18,0,0,1-2.1,8.61,19.93,19.93,0,0,1-4.62,7.14A21.73,21.73,0,0,1,701,245.83ZM709.18,167.5a7.19,7.19,0,0,0-2.52-5.67,7.5,7.5,0,0,0-5.67-2.52H606.7a7.19,7.19,0,0,0-5.67,2.52,7.75,7.75,0,0,0-2.31,5.67v6.09H709.18ZM598.72,201.94H709.18V187.66H598.72ZM701,231.55a6.84,6.84,0,0,0,5.67-2.52,7.19,7.19,0,0,0,2.52-5.67v-7.14H598.72v7.14A7.75,7.75,0,0,0,601,229a6.59,6.59,0,0,0,5.67,2.52Z" transform="translate(0 -0.04)"/><path d="M857.86,56.62a18.06,18.06,0,0,1,13.23,5.46,17.68,17.68,0,0,1,5.67,13v27.09c0,10.08-8.61,18.48-18.9,18.48H833.29v8h43.89a7.13,7.13,0,0,1,6.93,6.93V136a7,7,0,0,1-6.93,6.93H774.69a7.13,7.13,0,0,1-6.93-6.93v-.42a7.29,7.29,0,0,1,6.93-6.93H819v-8H794a18.08,18.08,0,0,1-17-11.34,17,17,0,0,1-1.68-7.14V75.1a17.68,17.68,0,0,1,5.67-13,17.26,17.26,0,0,1,13-5.46ZM785,209.71a6.94,6.94,0,0,1,9-3.36l.42.21a7,7,0,0,1,3.36,9.24c-4,8.4-8.19,16.38-13,24.57a6.83,6.83,0,0,1-9.66,2.1l-.42-.21a6.93,6.93,0,0,1-2.1-9.24C777,225.46,781.2,217.69,785,209.71Zm71.2-58.59a18.48,18.48,0,0,1,17,11.55,16.74,16.74,0,0,1,1.47,7.14v12.81a18.29,18.29,0,0,1-18.48,18.48H833.29v23.31c0,9-5.67,16.8-14.07,20.37a19.9,19.9,0,0,1-8.4,2.1h-.63a7.14,7.14,0,0,1-6.94-6.93v-.42a6.87,6.87,0,0,1,6.94-6.93h.63a7.75,7.75,0,0,0,5.67-2.31,8,8,0,0,0,2.52-5.88V201.1H795.9a18.64,18.64,0,0,1-18.69-18.48V169.81a19.4,19.4,0,0,1,18.69-18.69ZM794,70.69a4.44,4.44,0,0,0-4.41,4.41V81h72.88V75.1a4.62,4.62,0,0,0-4.62-4.41Zm63.85,35.91a4.48,4.48,0,0,0,4.62-4.41V95.47H789.6v6.72A4.31,4.31,0,0,0,794,106.6Zm-62,58.8a4.31,4.31,0,0,0-4.41,4.41v12.81a4.48,4.48,0,0,0,4.41,4.62h60.28a4.32,4.32,0,0,0,4.2-4.62V169.81a4.14,4.14,0,0,0-4.2-4.41ZM851.77,216a6.74,6.74,0,0,1,2.94-9.45l.21-.21a6.72,6.72,0,0,1,9.24,2.94L877,233a6.56,6.56,0,0,1-2.94,9.24l-.42.42c-3.36,1.89-7.35.42-9.45-2.73Zm76.44,3.15A167.57,167.57,0,0,1,898,242.68a7.27,7.27,0,0,1-5.46.84,7.42,7.42,0,0,1-4.2-3.36l-.21-.21c-1.68-3.36-.84-7.35,2.52-9.24a158.41,158.41,0,0,0,27.51-22.05c9.24-8.82,17.64-19.53,25.62-32.34A7.2,7.2,0,0,1,953.2,174l.21.42a6.67,6.67,0,0,1,2.31,9.66C947.11,197.74,938.08,209.5,928.21,219.16Zm.84-63.42a146,146,0,0,1-24.15,17.85,7.16,7.16,0,0,1-5.46.42,6.19,6.19,0,0,1-4.2-3.36l-.21-.21a6.88,6.88,0,0,1,2.73-9.24,131.72,131.72,0,0,0,22-16.17,127.73,127.73,0,0,0,20.58-23.73,6.94,6.94,0,0,1,9.45-1.89l.21.21a6.65,6.65,0,0,1,1.89,9.66A150.49,150.49,0,0,1,929.05,155.74Zm.42-61.11A138.55,138.55,0,0,1,907.42,110a6.34,6.34,0,0,1-5.46.63,6.48,6.48,0,0,1-4.2-3.57v-.21a6.65,6.65,0,0,1,2.94-9A153,153,0,0,0,920,84.13,116.27,116.27,0,0,0,938.5,63.76,7.14,7.14,0,0,1,948,62.29l.63.42a6.63,6.63,0,0,1,2.73,4.62,6.85,6.85,0,0,1-1.26,5.25A115.27,115.27,0,0,1,929.47,94.63Z" transform="translate(0 -0.04)"/><path d="M996,108.28a7,7,0,0,1-6.93-6.93v-.42A7.13,7.13,0,0,1,996,94h59.86a7.13,7.13,0,0,1,6.93,6.93v.42a7,7,0,0,1-6.93,6.93H1033v131a6.87,6.87,0,0,1-6.94,6.93h-.42a6.86,6.86,0,0,1-6.93-6.93v-131Zm2.73-33.39A7.13,7.13,0,0,1,991.83,68v-.42a7,7,0,0,1,6.93-6.93h54.61a7,7,0,0,1,6.93,6.93V68a7.13,7.13,0,0,1-6.93,6.93Zm-3.36,50.4a6.85,6.85,0,0,1,7.14-6.72h.42a6.81,6.81,0,0,1,6.72,6.93l-2.73,113a7,7,0,0,1-7.14,6.72h-.42a6.83,6.83,0,0,1-6.51-7.14Zm49.57.21a6.86,6.86,0,0,1,6.93-6.93h.21a6.86,6.86,0,0,1,6.93,6.93V239.32a7,7,0,0,1-6.93,6.93h-.21a7,7,0,0,1-6.93-6.93ZM1130.44,141c0,15.75-1.47,29.4-4.62,40.74a105.13,105.13,0,0,1-12.6,29.4,78,78,0,0,1-19.11,20.58,120.7,120.7,0,0,1-17.85,11.13,5.69,5.69,0,0,1-5.46.42,6,6,0,0,1-4-3.78l-.21-.21a7,7,0,0,1,3.15-9,103.58,103.58,0,0,0,15.33-9.45A67,67,0,0,0,1101.46,203a89,89,0,0,0,10.71-26c2.73-10.08,4-21.84,4-35.91V98.2a7,7,0,0,1,6.93-6.93h.42a7,7,0,0,1,6.93,6.93Zm30.24-61.32a8.12,8.12,0,0,0-8.19-8.4h-54.81c-4.83,0-8.19,3.57-8.19,8.4v97.44a7,7,0,0,1-6.93,6.93h-.21a7,7,0,0,1-6.93-6.93V79.72a22.45,22.45,0,0,1,22.26-22.47h54.81a22.45,22.45,0,0,1,22.26,22.47v97.44a7,7,0,0,1-6.93,6.93h-.21a6.86,6.86,0,0,1-6.93-6.93ZM1154,246.46a24.4,24.4,0,0,1-10.29-2.1,27.45,27.45,0,0,1-14.07-13.86,28.81,28.81,0,0,1-1.89-10.29v-42a6.86,6.86,0,0,1,6.93-6.93h.21a6.86,6.86,0,0,1,6.93,6.93v42a11.55,11.55,0,0,0,3.57,8.61,11.71,11.71,0,0,0,8.61,3.36h19.11a7.13,7.13,0,0,1,6.93,6.93v.42a7,7,0,0,1-6.93,6.93Z" transform="translate(0 -0.04)"/></svg>