<svg xmlns="http://www.w3.org/2000/svg" viewBox="0 0 881.59 299.96"><defs><style>.cls-1{fill:#ff9100;}.cls-2{fill:#25d9f8;}.cls-3{fill:#00c0f1;}.cls-4{fill:#7fe881;}.cls-5{fill:#5bc980;}.cls-6{fill:#ff637b;}.cls-7{fill:#e63950;}.cls-8{fill:#111;}</style></defs><title>logo</title><path class="cls-1" d="M252.15,127.51,201.39,98.16l-69.53,52,69.53,52,50.93-29.45a26.42,26.42,0,0,0-.17-45.23Z" transform="translate(0.01 -0.04)"/><path class="cls-2" d="M149.44,150.18c-.08.09-61.49,79.13-61.54,79.19l-80,63.06a26.76,26.76,0,0,1-7.91-19V26.49a26.8,26.8,0,0,1,7.91-19L87.9,71Z" transform="translate(0.01 -0.04)"/><polygon class="cls-3" points="149.45 150.14 131.87 172.84 131.87 127.43 149.45 150.14"/><path class="cls-4" d="M201.48,98.08l-52,52.1L7.91,7.48a40.38,40.38,0,0,1,5.45-4A26,26,0,0,1,40.09,4l91.77,54Z" transform="translate(0.01 -0.04)"/><polygon class="cls-5" points="201.49 98.04 149.45 150.14 131.87 132.54 131.87 57.92 201.49 98.04"/><path class="cls-6" d="M201.48,202.27l-69.62,40.12-92,53.74A26.84,26.84,0,0,1,26.37,300a27.31,27.31,0,0,1-13-3.52,39.89,39.89,0,0,1-5.45-4.05L149.44,150.18Z" transform="translate(0.01 -0.04)"/><polygon class="cls-7" points="201.49 202.23 131.87 242.35 131.87 167.74 149.45 150.14 201.49 202.23"/><path class="cls-8" d="M582.26,60.88v69.44q0,9.24-6.86,14.14a25.14,25.14,0,0,1-15,4.9H324.66V79.92q0-9.51,6.86-14.28a25.76,25.76,0,0,1,15-4.76h49.27V47.72H318.5V15.52H588.42v32.2H510.86V60.88ZM320.79,166.44h32.76v-12h42.24v12h190.4V199.2H552V221q0,7.56-5.46,11.48a35.61,35.61,0,0,1-11.9,5.6l-8.4,2,56,13.72L556.5,284,452.62,258.28,347.9,284l-23.52-30.2,55.16-13.72L370,237.84a27.26,27.26,0,0,1-11.48-5.46q-5-4-5-11.34V199.2H320.79Zm47.32-73.08v23.52h27.68V93.36ZM509.18,208.44V199.2H395.79v9.24l56.84,14Zm-70-147.56h28.28V47.72H439.18Zm0,56h28.28V93.36H439.18Zm99.68,0V93.36h-28v23.52Z" transform="translate(0.01 -0.04)"/><path class="cls-8" d="M867.86,133.68v133a11.56,11.56,0,0,1-2.38,7.29,21.16,21.16,0,0,1-5.88,5.19,27.08,27.08,0,0,1-7.7,3.09,33.79,33.79,0,0,1-7.56,1V283H650.58V199.48H613.34L645.54,123h-32.2V94.48h44.24l4.76-11.2H627.62V54.72h46.76l4.48-10.64H619.22V15.52h256.2V44.08H724.79l-4.48,10.64h147V83.28h-159l-4.76,11.2h178V123H691.46l-4.76,10.64ZM694,164.2v10.64H824.46V164.2ZM694,214H824.46V203.12H694Zm130.48,39V242.32H694V253Z" transform="translate(0.01 -0.04)"/></svg>